<svg width="100" height="100" viewBox="0 0 100 100" fill="none" xmlns="http://www.w3.org/2000/svg">
<path d="M91.25 20.8334H75V8.33341C75 6.04175 73.125 4.16675 70.8334 4.16675C68.5417 4.16675 66.6667 6.04175 66.6667 8.33341V20.8334H50.4167C47.9584 20.8334 46.0417 22.9584 46.25 25.4167L46.75 30.4584C62.0834 34.0001 75 44.8751 75 62.5001L75.0834 95.8334H82.1667C85.6667 95.8334 88.5417 93.1251 88.9584 89.7084L95.375 25.4167C95.625 22.9584 93.7084 20.8334 91.25 20.8334ZM62.5 87.5001H8.33335C6.04169 87.5001 4.16669 89.3751 4.16669 91.6667C4.16669 93.9584 6.04169 95.8334 8.33335 95.8334H62.5C64.7917 95.8334 66.6667 93.9584 66.6667 91.6667C66.6667 89.3751 64.7917 87.5001 62.5 87.5001ZM8.75002 62.5001H62.0834C64.6667 62.5001 66.7084 60.1667 66.2084 57.6667C63.5 44.2084 49.4584 37.4584 35.4167 37.4584C21.375 37.4584 7.37502 44.2084 4.62502 57.6667C4.12502 60.1667 6.20835 62.5001 8.75002 62.5001ZM62.5 70.8334H8.33335C6.04169 70.8334 4.16669 72.7084 4.16669 75.0001C4.16669 77.2917 6.04169 79.1667 8.33335 79.1667H62.5C64.7917 79.1667 66.6667 77.2917 66.6667 75.0001C66.6667 72.7084 64.7917 70.8334 62.5 70.8334Z" fill="white"/>
</svg>
