<svg width="24" height="24" viewBox="0 0 24 24" fill="none" xmlns="http://www.w3.org/2000/svg">
<path d="M19.289 14.7635L19.2868 14.7632L16.747 14.4733C15.9859 14.3859 15.2346 14.6483 14.6965 15.1865L13.1166 16.7664C10.6311 15.4228 8.57671 13.3759 7.23331 10.8838L8.82359 9.29356C9.3617 8.75546 9.62413 8.00418 9.53678 7.24301L9.53676 7.24285L9.24677 4.72285L9.24655 4.72102C9.09682 3.46076 8.03467 2.51001 6.76004 2.51001H5.03004C3.63057 2.51001 2.44203 3.67472 2.531 5.11092L2.531 5.11098C3.07664 13.9029 10.1075 20.9234 18.889 21.469L18.8891 21.4691C20.3253 21.558 21.49 20.3695 21.49 18.97V17.2423C21.5013 15.9728 20.5461 14.9129 19.289 14.7635Z" fill="white" stroke="white"/>
</svg>
