<svg width="222" height="78" viewBox="0 0 222 78" fill="none" xmlns="http://www.w3.org/2000/svg">
<path fill-rule="evenodd" clip-rule="evenodd" d="M30.5332 0.161533C13.6702 0.161533 0 13.5565 0 30.08C0 46.6035 13.6702 59.9985 30.5332 59.9985C47.3963 59.9985 61.0665 46.6035 61.0665 30.08V0.161533H30.5332ZM30.5332 11.0678C19.8173 11.0678 11.1303 19.5799 11.1303 30.08C11.1303 40.5802 19.8173 49.0923 30.5332 49.0923C41.2492 49.0923 49.9361 40.5802 49.9361 30.08V11.0678H30.5332Z" fill="#1771C9"/>
<path fill-rule="evenodd" clip-rule="evenodd" d="M30.5332 0.161533C13.6702 0.161533 0 13.5565 0 30.08C0 46.6035 13.6702 59.9985 30.5332 59.9985C47.3963 59.9985 61.0665 46.6035 61.0665 30.08V0.161533H30.5332ZM30.5332 5.76204C16.8268 5.76204 5.71558 16.6496 5.71558 30.08C5.71558 43.5105 16.8268 54.398 30.5332 54.398C44.2397 54.398 55.3509 43.5105 55.3509 30.08V5.76204H30.5332Z" fill="#1771C9"/>
<path d="M66.1588 39.3651V0.328958H71.8659V33.7728H83.1683V39.3651H66.1588Z" fill="#1771C9"/>
<path d="M98.394 25.7134L95.5964 11.5683H95.4845L92.6868 25.7134H98.394ZM84.2939 39.3651L93.1904 0.328958H97.9464L106.843 39.3651H101.136L99.4571 30.9767H91.6797L90.0011 39.3651H84.2939Z" fill="#1771C9"/>
<path d="M127.782 28.2354V30.6477C127.782 31.8539 127.539 33.0053 127.054 34.1018C126.607 35.1617 125.973 36.1121 125.152 36.9527C124.331 37.7934 123.362 38.4696 122.242 38.9813C121.161 39.4564 119.986 39.694 118.717 39.694C117.636 39.694 116.535 39.5478 115.416 39.2554C114.297 38.963 113.29 38.4513 112.395 37.7203C111.5 36.9893 110.754 36.0572 110.157 34.9242C109.597 33.7545 109.317 32.2742 109.317 30.4833V8.99147C109.317 7.71219 109.541 6.52429 109.989 5.42778C110.436 4.33125 111.071 3.38094 111.891 2.57682C112.712 1.77271 113.682 1.15135 114.801 0.712738C115.957 0.237579 117.225 0 118.606 0C121.291 0 123.473 0.858942 125.152 2.57682C125.973 3.41749 126.607 4.42263 127.054 5.59225C127.539 6.72532 127.782 7.96805 127.782 9.32042V11.5135H122.075V9.64937C122.075 8.55286 121.758 7.60254 121.123 6.79842C120.489 5.99431 119.631 5.59225 118.55 5.59225C117.132 5.59225 116.181 6.03086 115.696 6.90808C115.248 7.74874 115.025 8.82699 115.025 10.1428V30.0995C115.025 31.2325 115.267 32.1829 115.752 32.9504C116.274 33.718 117.188 34.1018 118.494 34.1018C118.867 34.1018 119.258 34.0469 119.669 33.9373C120.116 33.7911 120.527 33.5718 120.9 33.2794C121.235 32.987 121.515 32.5849 121.739 32.0732C121.963 31.5615 122.075 30.9219 122.075 30.1543V28.2354H127.782Z" fill="#1771C9"/>
<path d="M132.438 39.3651V0.328958H149.448V5.59225H138.146V17.0509H147.993V22.3142H138.146V33.7728H149.448V39.3651H132.438Z" fill="#1771C9"/>
<path d="M158.855 5.59225V17.7636H162.1C163.107 17.7636 163.909 17.6357 164.506 17.3798C165.103 17.0874 165.569 16.6854 165.905 16.1737C166.203 15.662 166.408 15.0406 166.52 14.3096C166.632 13.542 166.688 12.6648 166.688 11.6779C166.688 10.6911 166.632 9.83213 166.52 9.10112C166.408 8.33355 166.184 7.67564 165.849 7.12738C165.14 6.10396 163.797 5.59225 161.82 5.59225H158.855ZM153.147 39.3651V0.328958H162.324C169.038 0.328958 172.395 4.1485 172.395 11.7876C172.395 14.0903 172.022 16.0457 171.276 17.654C170.567 19.2622 169.299 20.5597 167.471 21.5466L173.626 39.3651H167.583L162.268 22.698H158.855V39.3651H153.147Z" fill="#1771C9"/>
<path d="M182.678 5.59225V17.7636H185.923C186.931 17.7636 187.733 17.6357 188.329 17.3798C188.926 17.0874 189.392 16.6854 189.728 16.1737C190.027 15.662 190.232 15.0406 190.344 14.3096C190.456 13.542 190.512 12.6648 190.512 11.6779C190.512 10.6911 190.456 9.83213 190.344 9.10112C190.232 8.33355 190.008 7.67564 189.672 7.12738C188.964 6.10396 187.621 5.59225 185.644 5.59225H182.678ZM176.971 39.3651V0.328958H186.147C192.862 0.328958 196.219 4.1485 196.219 11.7876C196.219 14.0903 195.846 16.0457 195.1 17.654C194.391 19.2622 193.123 20.5597 191.295 21.5466L197.45 39.3651H191.407L186.091 22.698H182.678V39.3651H176.971Z" fill="#1771C9"/>
<path d="M212.321 25.7134L209.523 11.5683H209.411L206.614 25.7134H212.321ZM198.221 39.3651L207.117 0.328958H211.873L220.77 39.3651H215.062L213.384 30.9767H205.606L203.928 39.3651H198.221Z" fill="#1771C9"/>
<path d="M66.8807 44.2605H72.7353C73.5515 44.2605 74.3232 44.3332 75.0504 44.4786C75.7776 44.624 76.4083 44.8785 76.9426 45.2421C77.4917 45.5911 77.922 46.0709 78.2337 46.6817C78.5602 47.2779 78.7234 48.0341 78.7234 48.9502C78.7234 49.8518 78.575 50.6079 78.2782 51.2187C77.9814 51.8294 77.5733 52.3166 77.0539 52.6801C76.5345 53.0437 75.9186 53.3054 75.2062 53.4654C74.4939 53.6108 73.7222 53.6835 72.8911 53.6835H70.3534V59.7037H66.8807V44.2605ZM70.3534 50.8042H72.6685C72.9802 50.8042 73.277 50.7752 73.5589 50.717C73.8558 50.6588 74.1155 50.5643 74.3381 50.4334C74.5755 50.288 74.761 50.099 74.8946 49.8663C75.043 49.6191 75.1172 49.3137 75.1172 48.9502C75.1172 48.5576 75.0207 48.2449 74.8278 48.0122C74.6497 47.765 74.4123 47.576 74.1155 47.4451C73.8335 47.3142 73.5144 47.2343 73.1582 47.2052C72.8021 47.1616 72.4607 47.1397 72.1343 47.1397H70.3534V50.8042Z" fill="#1771C9"/>
<path d="M86.4898 44.2605H89.9625V56.5627H96.3958V59.7037H86.4898V44.2605Z" fill="#1771C9"/>
<path d="M117.056 53.7489C117.056 54.6651 116.915 55.5085 116.633 56.2792C116.351 57.0499 115.928 57.7188 115.364 58.2859C114.815 58.8531 114.125 59.2966 113.294 59.6165C112.463 59.9364 111.506 60.0964 110.422 60.0964C109.324 60.0964 108.36 59.9364 107.529 59.6165C106.698 59.2966 106 58.8531 105.436 58.2859C104.887 57.7188 104.471 57.0499 104.189 56.2792C103.908 55.5085 103.767 54.6651 103.767 53.7489V44.2605H107.239V53.6181C107.239 54.0979 107.313 54.5415 107.462 54.9486C107.625 55.3558 107.848 55.7121 108.13 56.0174C108.412 56.3083 108.745 56.5409 109.131 56.7154C109.532 56.8754 109.962 56.9554 110.422 56.9554C110.883 56.9554 111.305 56.8754 111.691 56.7154C112.077 56.5409 112.411 56.3083 112.693 56.0174C112.975 55.7121 113.19 55.3558 113.339 54.9486C113.502 54.5415 113.583 54.0979 113.583 53.6181V44.2605H117.056V53.7489Z" fill="#1771C9"/>
<path d="M125.72 44.2605H130.974L134.602 54.3379H134.647L138.298 44.2605H143.529V59.7037H140.056V47.8596H140.012L135.871 59.7037H133.222L129.237 47.8596H129.193V59.7037H125.72V44.2605Z" fill="#1771C9"/>
<path d="M152.196 44.2605H158.073C158.755 44.2605 159.438 44.3114 160.12 44.4132C160.818 44.5004 161.441 44.6895 161.99 44.9803C162.539 45.2566 162.985 45.6492 163.326 46.1582C163.667 46.6671 163.838 47.3433 163.838 48.1867C163.838 49.0592 163.586 49.7863 163.081 50.368C162.591 50.9351 161.938 51.3423 161.122 51.5895V51.6331C161.642 51.7058 162.109 51.8512 162.525 52.0694C162.955 52.273 163.319 52.542 163.615 52.8764C163.927 53.1963 164.165 53.5744 164.328 54.0107C164.491 54.4469 164.573 54.9123 164.573 55.4067C164.573 56.221 164.395 56.9045 164.038 57.4571C163.682 57.9951 163.222 58.4313 162.658 58.7658C162.094 59.1003 161.456 59.3402 160.744 59.4856C160.046 59.631 159.349 59.7037 158.651 59.7037H152.196V44.2605ZM155.668 50.4334H158.184C158.451 50.4334 158.711 50.4043 158.963 50.3462C159.23 50.288 159.468 50.1935 159.675 50.0626C159.883 49.9317 160.046 49.7572 160.165 49.5391C160.299 49.321 160.365 49.0592 160.365 48.7539C160.365 48.434 160.291 48.1722 160.143 47.9686C160.009 47.7505 159.831 47.5833 159.609 47.4669C159.386 47.3506 159.134 47.2706 158.852 47.227C158.57 47.1688 158.295 47.1397 158.028 47.1397H155.668V50.4334ZM155.668 56.8245H158.785C159.052 56.8245 159.319 56.7954 159.586 56.7372C159.868 56.6791 160.12 56.5773 160.343 56.4319C160.566 56.2864 160.744 56.0974 160.877 55.8647C161.026 55.6321 161.1 55.3485 161.1 55.0141C161.1 54.6505 161.003 54.3597 160.811 54.1416C160.632 53.9089 160.402 53.7344 160.12 53.6181C159.839 53.5017 159.534 53.4217 159.208 53.3781C158.881 53.3345 158.577 53.3127 158.295 53.3127H155.668V56.8245Z" fill="#1771C9"/>
<path d="M172.04 44.2605H175.512V59.7037H172.04V44.2605Z" fill="#1771C9"/>
<path d="M184.125 44.2605H188.844L195.545 54.9922H195.589V44.2605H199.062V59.7037H194.521L187.642 48.7102H187.598V59.7037H184.125V44.2605Z" fill="#1771C9"/>
<path d="M222 58.6131C220.976 59.1366 219.907 59.5147 218.794 59.7474C217.681 59.98 216.546 60.0964 215.389 60.0964C214.157 60.0964 213.022 59.9073 211.983 59.5292C210.944 59.1512 210.046 58.6131 209.289 57.9151C208.532 57.2026 207.939 56.3446 207.508 55.3412C207.093 54.3379 206.885 53.2182 206.885 51.9821C206.885 50.7461 207.093 49.6264 207.508 48.623C207.939 47.6196 208.532 46.7689 209.289 46.0709C210.046 45.3584 210.944 44.8131 211.983 44.435C213.022 44.0569 214.157 43.8679 215.389 43.8679C216.65 43.8679 217.808 44.0206 218.861 44.3259C219.93 44.6168 220.865 45.1257 221.666 45.8528L219.217 48.4703C218.743 47.9904 218.208 47.6269 217.615 47.3797C217.021 47.1325 216.279 47.0089 215.389 47.0089C214.647 47.0089 213.971 47.1325 213.363 47.3797C212.769 47.6269 212.257 47.9759 211.827 48.4267C211.396 48.8629 211.063 49.3864 210.825 49.9972C210.603 50.6079 210.491 51.2696 210.491 51.9821C210.491 52.7092 210.603 53.3781 210.825 53.9889C211.063 54.5851 211.396 55.1086 211.827 55.5594C212.257 55.9956 212.769 56.3373 213.363 56.5846C213.971 56.8318 214.647 56.9554 215.389 56.9554C216.145 56.9554 216.798 56.8754 217.348 56.7154C217.897 56.5409 218.334 56.3664 218.661 56.1919V53.6835H215.834V50.5425H222V58.6131Z" fill="#1771C9"/>
<path d="M73.2756 77.6843V71.4448H68.1397V77.6843H66.813V64.5367H68.1397V70.2934H73.2756V64.5367H74.6022V77.6843H73.2756Z" fill="#1771C9"/>
<path d="M77.6769 77.6843V64.5367H83.0782V65.688H78.9657V70.312H82.8128V71.4076H78.9657V76.5144H83.2677V77.6843H77.6769Z" fill="#1771C9"/>
<path d="M91.3405 77.6843L90.5256 74.3974H86.3941L85.5413 77.6843H84.1957L87.607 64.5367H89.4074L92.724 77.6843H91.3405ZM88.5167 65.7066H88.4409L86.5836 73.3575H90.3361L88.5167 65.7066Z" fill="#1771C9"/>
<path d="M96.4061 65.6509V77.6843H95.0984V65.6509H92.521V64.5367H99.0025V65.6509H96.4061Z" fill="#1771C9"/>
<path d="M100.534 77.6843V64.5367H101.86V77.6843H100.534Z" fill="#1771C9"/>
<path d="M110.908 77.6843L106.227 66.7465H106.17V77.6843H104.938V64.5367H106.587L111.23 75.4745H111.287V64.5367H112.5V77.6843H110.908Z" fill="#1771C9"/>
<path d="M122.915 76.8672C122.549 77.1891 122.1 77.4491 121.569 77.6472C121.051 77.8329 120.439 77.9257 119.731 77.9257C118.986 77.9257 118.316 77.7648 117.722 77.4429C117.128 77.121 116.629 76.663 116.225 76.0687C115.821 75.4745 115.511 74.7564 115.296 73.9146C115.082 73.0727 114.974 72.1319 114.974 71.0919C114.974 70.1139 115.075 69.204 115.278 68.3621C115.492 67.5203 115.796 66.796 116.187 66.1894C116.579 65.5704 117.059 65.0876 117.628 64.741C118.196 64.3943 118.84 64.221 119.561 64.221C120.218 64.221 120.818 64.351 121.361 64.611C121.904 64.8709 122.359 65.2795 122.726 65.8366L121.873 66.6908C121.582 66.2575 121.241 65.9356 120.849 65.7252C120.47 65.5023 120.06 65.3909 119.617 65.3909C119.062 65.3909 118.581 65.5457 118.177 65.8552C117.773 66.1523 117.432 66.5608 117.154 67.0808C116.888 67.6007 116.686 68.2074 116.547 68.9007C116.421 69.5816 116.358 70.312 116.358 71.0919C116.358 71.909 116.427 72.6642 116.566 73.3575C116.705 74.0508 116.914 74.6512 117.192 75.1588C117.482 75.654 117.836 76.044 118.253 76.3287C118.682 76.6134 119.175 76.7558 119.731 76.7558C120.135 76.7558 120.496 76.7063 120.811 76.6072C121.14 76.5082 121.412 76.3658 121.626 76.1801V71.7233H119.712V70.5905H122.915V76.8672Z" fill="#1771C9"/>
<path d="M135.778 77.6843L134.565 75.883C134.439 76.1678 134.287 76.4401 134.11 76.7001C133.933 76.9601 133.725 77.1891 133.485 77.3872C133.245 77.5729 132.967 77.7215 132.651 77.8329C132.348 77.9443 132 78 131.609 78C130.674 78 129.916 77.6719 129.334 77.0158C128.766 76.3596 128.482 75.4373 128.482 74.2488C128.482 73.7784 128.538 73.3513 128.652 72.9675C128.779 72.5837 128.943 72.2371 129.145 71.9276C129.347 71.6057 129.587 71.321 129.865 71.0734C130.143 70.8134 130.446 70.5782 130.775 70.3677C130.345 69.7363 130.055 69.1916 129.903 68.7335C129.751 68.2631 129.676 67.7741 129.676 67.2665C129.676 66.3132 129.928 65.5642 130.434 65.0195C130.939 64.4624 131.583 64.1838 132.367 64.1838C132.746 64.1838 133.087 64.2519 133.39 64.3881C133.706 64.5243 133.971 64.7162 134.186 64.9638C134.413 65.2114 134.59 65.5147 134.717 65.8737C134.843 66.2204 134.906 66.6041 134.906 67.0251C134.906 67.4584 134.837 67.8484 134.698 68.195C134.559 68.5416 134.369 68.8635 134.129 69.1606C133.902 69.4454 133.63 69.7054 133.314 69.9406C132.998 70.1758 132.67 70.4048 132.329 70.6277L134.47 73.766L135.645 70.6277H136.934L135.209 74.7131L137.294 77.6843H135.778ZM133.693 67.1179C133.693 66.5237 133.573 66.0594 133.333 65.7252C133.106 65.3785 132.777 65.2052 132.348 65.2052C131.918 65.2052 131.564 65.3971 131.286 65.7809C131.021 66.1523 130.888 66.6351 130.888 67.2293C130.888 67.7122 130.958 68.1455 131.097 68.5293C131.236 68.913 131.47 69.3525 131.798 69.8477C132.329 69.5135 132.777 69.1359 133.144 68.715C133.51 68.2817 133.693 67.7493 133.693 67.1179ZM131.343 71.2219C131.129 71.3705 130.92 71.5376 130.718 71.7233C130.516 71.8966 130.339 72.1071 130.187 72.3547C130.036 72.5899 129.909 72.8561 129.808 73.1532C129.72 73.4503 129.676 73.7846 129.676 74.156C129.676 75.0102 129.865 75.6787 130.244 76.1616C130.636 76.6444 131.135 76.8858 131.741 76.8858C132.007 76.8858 132.247 76.8301 132.461 76.7187C132.689 76.6072 132.891 76.4649 133.068 76.2915C133.257 76.1059 133.415 75.8954 133.542 75.6602C133.681 75.4249 133.794 75.1835 133.883 74.9359L131.343 71.2219Z" fill="#1771C9"/>
<path d="M149.899 76.8672C149.533 77.1891 149.084 77.4491 148.553 77.6472C148.035 77.8329 147.423 77.9257 146.715 77.9257C145.97 77.9257 145.3 77.7648 144.706 77.4429C144.112 77.121 143.613 76.663 143.209 76.0687C142.805 75.4745 142.495 74.7564 142.28 73.9146C142.066 73.0727 141.958 72.1319 141.958 71.0919C141.958 70.1139 142.059 69.204 142.261 68.3621C142.476 67.5203 142.779 66.796 143.171 66.1894C143.563 65.5704 144.043 65.0876 144.611 64.741C145.18 64.3943 145.824 64.221 146.544 64.221C147.201 64.221 147.802 64.351 148.345 64.611C148.888 64.8709 149.343 65.2795 149.709 65.8366L148.857 66.6908C148.566 66.2575 148.225 65.9356 147.833 65.7252C147.454 65.5023 147.044 65.3909 146.601 65.3909C146.045 65.3909 145.565 65.5457 145.161 65.8552C144.757 66.1523 144.416 66.5608 144.138 67.0808C143.872 67.6007 143.67 68.2074 143.531 68.9007C143.405 69.5816 143.342 70.312 143.342 71.0919C143.342 71.909 143.411 72.6642 143.55 73.3575C143.689 74.0508 143.898 74.6512 144.176 75.1588C144.466 75.654 144.82 76.044 145.237 76.3287C145.666 76.6134 146.159 76.7558 146.715 76.7558C147.119 76.7558 147.479 76.7063 147.795 76.6072C148.124 76.5082 148.395 76.3658 148.61 76.1801V71.7233H146.696V70.5905H149.899V76.8672Z" fill="#1771C9"/>
<path d="M158.43 77.6843L157.615 74.3974H153.484L152.631 77.6843H151.285L154.697 64.5367H156.497L159.814 77.6843H158.43ZM155.606 65.7066H155.531L153.673 73.3575H157.426L155.606 65.7066Z" fill="#1771C9"/>
<path d="M167.297 74.3231C167.297 74.905 167.209 75.4249 167.032 75.883C166.855 76.3287 166.608 76.7125 166.293 77.0344C165.989 77.3439 165.629 77.5791 165.212 77.74C164.795 77.9133 164.353 78 163.886 78C163.203 78 162.572 77.8576 161.991 77.5729C161.422 77.2881 160.961 76.9106 160.607 76.4401L161.422 75.5302C161.713 75.9387 162.079 76.2544 162.521 76.4773C162.963 76.7001 163.412 76.8115 163.867 76.8115C164.473 76.8115 164.979 76.6011 165.383 76.1801C165.8 75.7592 166.008 75.1588 166.008 74.3788C166.008 74.0074 165.945 73.6794 165.819 73.3946C165.692 73.1099 165.522 72.8561 165.307 72.6332C165.092 72.4104 164.846 72.2123 164.568 72.039C164.303 71.8657 164.018 71.7047 163.715 71.5562C163.349 71.3829 163.001 71.191 162.673 70.9805C162.344 70.7577 162.054 70.5039 161.801 70.2191C161.561 69.9344 161.365 69.6001 161.214 69.2163C161.062 68.8202 160.986 68.3621 160.986 67.8422C160.986 67.2355 161.081 66.7094 161.27 66.2637C161.46 65.8056 161.713 65.428 162.028 65.1309C162.357 64.8214 162.723 64.5924 163.128 64.4438C163.532 64.2953 163.955 64.221 164.397 64.221C165.004 64.221 165.547 64.3262 166.027 64.5367C166.52 64.7348 166.931 65.0505 167.259 65.4838L166.444 66.3937C166.191 66.0347 165.895 65.7809 165.553 65.6323C165.212 65.4714 164.84 65.3909 164.435 65.3909C164.17 65.3909 163.905 65.4404 163.639 65.5395C163.387 65.6261 163.159 65.7685 162.957 65.9666C162.755 66.1647 162.591 66.4184 162.464 66.728C162.338 67.0375 162.275 67.4027 162.275 67.8236C162.275 68.195 162.332 68.5169 162.445 68.7892C162.559 69.0616 162.711 69.303 162.9 69.5135C163.102 69.7239 163.33 69.9096 163.582 70.0706C163.848 70.2315 164.119 70.3801 164.397 70.5163C164.751 70.6896 165.099 70.8877 165.44 71.1105C165.794 71.3333 166.109 71.5933 166.387 71.8904C166.665 72.1876 166.886 72.5342 167.051 72.9304C167.215 73.3265 167.297 73.7908 167.297 74.3231Z" fill="#1771C9"/>
<path d="M174.502 65.7066V70.4048H178.273V71.5376H174.502V77.6843H173.194V64.5367H178.557V65.7066H174.502Z" fill="#1771C9"/>
<path d="M180.708 77.6843V64.5367H182.035V77.6843H180.708Z" fill="#1771C9"/>
<path d="M187.463 65.6509V77.6843H186.155V65.6509H183.578V64.5367H190.059V65.6509H187.463Z" fill="#1771C9"/>
<path d="M193.941 65.6509V77.6843H192.633V65.6509H190.055V64.5367H196.537V65.6509H193.941Z" fill="#1771C9"/>
<path d="M198.068 77.6843V64.5367H199.395V77.6843H198.068Z" fill="#1771C9"/>
<path d="M208.443 77.6843L203.762 66.7465H203.705V77.6843H202.473V64.5367H204.122L208.765 75.4745H208.822V64.5367H210.035V77.6843H208.443Z" fill="#1771C9"/>
<path d="M220.449 76.8672C220.083 77.1891 219.635 77.4491 219.104 77.6472C218.586 77.8329 217.973 77.9257 217.266 77.9257C216.52 77.9257 215.851 77.7648 215.257 77.4429C214.663 77.121 214.164 76.663 213.76 76.0687C213.355 75.4745 213.046 74.7564 212.831 73.9146C212.616 73.0727 212.509 72.1319 212.509 71.0919C212.509 70.1139 212.61 69.204 212.812 68.3621C213.027 67.5203 213.33 66.796 213.722 66.1894C214.113 65.5704 214.593 65.0876 215.162 64.741C215.73 64.3943 216.375 64.221 217.095 64.221C217.752 64.221 218.352 64.351 218.895 64.611C219.439 64.8709 219.894 65.2795 220.26 65.8366L219.407 66.6908C219.117 66.2575 218.775 65.9356 218.384 65.7252C218.005 65.5023 217.594 65.3909 217.152 65.3909C216.596 65.3909 216.116 65.5457 215.712 65.8552C215.307 66.1523 214.966 66.5608 214.688 67.0808C214.423 67.6007 214.221 68.2074 214.082 68.9007C213.955 69.5816 213.892 70.312 213.892 71.0919C213.892 71.909 213.962 72.6642 214.101 73.3575C214.24 74.0508 214.448 74.6512 214.726 75.1588C215.017 75.654 215.37 76.044 215.787 76.3287C216.217 76.6134 216.71 76.7558 217.266 76.7558C217.67 76.7558 218.03 76.7063 218.346 76.6072C218.674 76.5082 218.946 76.3658 219.161 76.1801V71.7233H217.247V70.5905H220.449V76.8672Z" fill="#1771C9"/>
</svg>
