<svg width="100" height="100" viewBox="0 0 100 100" fill="none" xmlns="http://www.w3.org/2000/svg">
<path d="M50 45.8333C44.4583 45.8333 33.3333 48.6249 33.3333 54.1666V54.8332C37.375 59.4999 43.3333 62.4999 50 62.4999C56.6666 62.4999 62.625 59.4999 66.6666 54.8332V54.1666C66.6666 48.6249 55.5416 45.8333 50 45.8333ZM50 41.6666C54.5833 41.6666 58.3333 37.9166 58.3333 33.3333C58.3333 28.7499 54.5833 24.9999 50 24.9999C45.4167 24.9999 41.6667 28.7499 41.6667 33.3333C41.6667 37.9166 45.4167 41.6666 50 41.6666ZM50 8.33325C67.5 8.33325 83.3333 21.7499 83.3333 42.4999C83.3333 55.7499 73.125 71.3333 52.75 89.2916C51.1666 90.6666 48.7917 90.6666 47.2083 89.2916C26.875 71.3333 16.6667 55.7499 16.6667 42.4999C16.6667 21.7499 32.5 8.33325 50 8.33325Z" fill="white"/>
</svg>
